<?xml version="1.0" standalone="no"?><!DOCTYPE svg PUBLIC "-//W3C//DTD SVG 1.1//EN" "http://www.w3.org/Graphics/SVG/1.1/DTD/svg11.dtd"><svg t="1684517992807" class="icon" viewBox="0 0 1024 1024" version="1.1" xmlns="http://www.w3.org/2000/svg" p-id="4612" xmlns:xlink="http://www.w3.org/1999/xlink" width="200" height="200"><path d="M878.483972 0C959.548545 0 1023.973547 67.496923 1023.973547 149.329476v590.918068c0 81.789887-63.955681 155.72931-145.489575 155.72931h-212.261183l-108.925186 109.223845a63.998347 63.998347 0 0 1-85.757784 4.394553l-4.863875-4.394553L357.708093 895.976854H145.446909C66.643612 895.976854 4.266556 826.858639 0.213328 748.396666L0 740.247544V149.329476C0 67.496923 64.425002 0 145.489575 0z m0 127.996693H145.489575C136.529806 127.996693 127.996693 136.913796 127.996693 149.329476v590.918068c0 14.932948 11.093047 27.732617 17.492882 27.732617h238.756499a63.998347 63.998347 0 0 1 45.310829 18.772848L511.986774 869.353542l82.42987-82.600533a63.998347 63.998347 0 0 1 38.953661-18.47419l6.357169-0.298658h238.799164c6.357169 0 17.450216-12.799669 17.450216-27.732617V149.329476c0-12.415679-8.533113-21.332782-17.492882-21.332783z m-345.164416 362.657298a63.998347 63.998347 0 0 1 6.143841 127.698035l-6.143841 0.298659h-255.993387a63.998347 63.998347 0 0 1-6.143841-127.698035L277.326169 490.653991h255.993387z m213.327822-234.660604a63.998347 63.998347 0 0 1 6.143842 127.698034L746.647378 383.99008h-469.321209a63.998347 63.998347 0 0 1-6.143841-127.698034L277.326169 255.993387h469.321209z" fill="#000000" p-id="4613"></path></svg>