<svg width="512" height="512" xmlns="http://www.w3.org/2000/svg" preserveAspectRatio="xMidYMid meet" version="1.0">
 <g id="Layer_1">
  <title>Layer 1</title>
  <path stroke="#000" id="svg_8" d="m167.55292,92.93863c-29.68015,-1.68743 -61.24526,-5.32727 -80.01843,-14.13027c-7.82665,-3.67982 -11.01495,-8.36543 -10.01823,-12.90866c-1.30563,-5.89573 8.4144,-11.19526 21.05743,-14.73756c25.24259,-7.18703 58.53493,-9.69064 90.24698,-10.30772c33.7535,-0.47631 68.82677,1.48478 98.31361,7.53816c17.97755,3.88375 33.89814,10.56307 33.00268,18.36685c0.98298,4.58198 -1.4763,9.44419 -10.58944,12.92573c-18.05576,7.71719 -46.46253,11.08835 -73.44179,12.9452c-22.59286,1.43993 -45.86047,1.52471 -68.5528,0.30826l0,0.00001zm55.14425,-4.5041c14.56232,-1.09492 24.11378,-6.24617 23.91073,-11.33672c2.4872,-10.69436 -7.60572,-22.38965 -32.27121,-29.15696c-13.83726,-3.43068 -33.55226,-3.76758 -48.19608,-0.80559c-10.91657,2.32179 -14.9939,6.92585 -14.96668,11.19504c-1.18305,9.07932 6.38854,18.57319 23.5473,25.47819c12.03898,4.45413 31.07554,6.83892 47.97596,4.62604l-0.00002,0z" fill="#000000"/>
  <path transform="rotate(180 208.323 289.209)" stroke="#ffffff" id="svg_16" d="m54.57437,384.93315c-28.70867,-41.60552 -17.77482,-97.13865 24.37093,-123.96047c42.14576,-26.82184 99.62691,-14.82845 128.33558,26.77707c28.70869,41.60554 86.2228,53.57795 128.36854,26.75613c42.14576,-26.82183 53.04668,-82.334 24.338,-123.93955c-57.41734,-83.21104 -172.43504,-107.20931 -256.72654,-53.56566c-84.2915,53.64365 -106.10386,164.72144 -48.68652,247.93248l0.00001,0zm52.50418,-33.414c8.97608,13.00842 26.94482,16.75761 40.12217,8.37146c13.17736,-8.38615 16.58499,-25.73937 7.60889,-38.74781c-8.97609,-13.00844 -26.9448,-16.75759 -40.12215,-8.37144c-13.17734,8.38615 -16.585,25.73936 -7.60891,38.74779zm152.70654,-97.18342c-8.97144,-13.0017 -5.56164,-30.36597 7.60892,-38.74779c13.17052,-8.38181 31.15071,-4.63029 40.12217,8.37143c8.97146,13.00172 5.56161,30.36602 -7.60892,38.74782c-13.17052,8.38181 -31.15071,4.63026 -40.12217,-8.37146zm-154.0938,-114.01579c84.22887,-53.60379 199.02122,-29.65252 256.39594,53.49675c57.37469,83.14924 35.60507,194.00948 -48.6238,247.61327c-84.2289,53.60381 -199.0213,29.65251 -256.396,-53.49672c-57.37471,-83.14927 -35.60505,-194.00948 48.62386,-247.6133z" fill="#ffffff"/>
  <path stroke="#000" stroke-width="4" id="svg_5" d="m103.36745,377.02655c-26.25612,-29.0768 -9.43419,-78.49207 32.36905,-66.37093c42.89841,13.37608 19.04223,75.02829 -18.97133,50.79711c-23.71861,-10.11026 10.26411,35.45677 26.90008,32.74448c33.76717,11.3359 53.1907,-17.21463 63.59738,-40.09711c10.47605,-15.40733 21.31845,-32.21863 -7.10785,-42.51821c-54.44725,-40.2209 -56.36665,-116.86026 -16.02778,-152.82712c35.58212,-36.0162 96.67251,-29.54697 148.31195,-31.72145c21.90828,-41.55399 55.03273,-82.93384 108.6508,-89.86721c46.45864,-3.1998 18.60079,51.12386 9.07257,69.49347c-22.75301,42.53122 -74.63703,63.5033 -127.63576,62.14324c-7.76929,14.08428 -15.59255,28.13664 -23.29782,42.25887c36.83759,22.28606 47.3469,70.37394 25.39704,97.64858c-16.43021,27.50478 -55.11323,33.83472 -89.53658,22.45309c-18.79775,19.64258 -24.20565,51.96665 -48.09726,68.45134c-24.34073,17.34987 -63.56751,2.71586 -83.62449,-22.58815l-0.00002,-0.00001l0.00001,0.00001zm117.38236,-62.57709c21.86495,-6.11596 27.80782,-44.6224 43.25033,-63.17772c28.8708,-30.70942 -45.84168,-28.18152 -47.74779,-2.69479c-4.69981,12.05223 11.2288,54.96964 -7.9891,20.53481c-16.5646,-39.75701 18.97861,-75.76943 60.68079,-68.33844c26.64869,15.30312 35.37688,-21.23927 38.52265,-33.00566c-47.14491,-3.11738 -102.97618,-4.04638 -128.95114,33.58623c-25.23811,34.51656 -0.40904,89.49258 42.23424,113.09559l0.00001,-0.00001l0.00001,-0.00001zm24.42225,10.03611c39.59652,8.81238 72.29396,-28.4536 53.38413,-64.64632c-18.99543,-39.90284 -29.771,13.29916 -41.45657,27.11867c-0.35063,8.78629 -30.15504,36.44202 -11.92755,37.52764zm120.87745,-195.41113c31.31695,-2.14939 71.57326,-9.45476 79.60185,-40.59904c-12.69603,-34.45523 -59.64111,-10.21612 -74.74317,5.02266c-9.62173,10.02599 -43.86628,43.66795 -4.85866,35.57639l0,0l-0.00002,-0.00001z" fill="#ffffff"/>
  <path stroke="#000" id="svg_1" d="m54.57437,384.93315c-28.70867,-41.60552 -17.77482,-97.13865 24.37093,-123.96047c42.14577,-26.82183 99.62692,-14.82845 128.33558,26.77707c28.70869,41.60554 86.2228,53.57795 128.36854,26.75613c42.14576,-26.82183 53.04668,-82.33401 24.338,-123.93955c-57.41734,-83.21104 -172.43504,-107.20931 -256.72653,-53.56567c-84.29151,53.64365 -106.10386,164.72145 -48.68652,247.93249l0.00001,-0.00001zm52.50418,-33.41399c8.97608,13.00842 26.94483,16.75761 40.12217,8.37146c13.17736,-8.38616 16.58499,-25.73937 7.60889,-38.74782c-8.97609,-13.00844 -26.94481,-16.75758 -40.12215,-8.37144c-13.17735,8.38615 -16.585,25.73936 -7.60891,38.74779zm152.70654,-97.18342c-8.97144,-13.0017 -5.56164,-30.36597 7.60891,-38.74779c13.17053,-8.38181 31.15072,-4.63029 40.12217,8.37143c8.97146,13.00173 5.56162,30.36602 -7.60891,38.74783c-13.17053,8.38181 -31.15072,4.63026 -40.12217,-8.37146zm-154.0938,-114.01579c84.22887,-53.60379 199.02122,-29.65252 256.39594,53.49675c57.37469,83.14923 35.60507,194.00947 -48.6238,247.61326c-84.2289,53.60381 -199.02131,29.65252 -256.396,-53.49672c-57.37472,-83.14927 -35.60506,-194.00948 48.62386,-247.6133z" fill="#000000"/>
  <g id="svg_18">
   <rect transform="rotate(-72.8377 423.723 364.291)" stroke="#ffffff" id="svg_17" height="75.43965" width="203.61302" y="326.5713" x="321.91648" fill="#ffffff"/>
   <g transform="rotate(106.975 423.717 363.887)" stroke="null">
    <path stroke="null" fill="#000000" p-id="2225" d="m419.03683,369.05958l-4.67979,0a4.67978,1.72421 0 0 1 -4.67978,-1.72421l0,-39.65684l-23.39892,0l0,39.65684a4.67978,1.72421 0 0 1 -4.67979,1.72421l-4.67978,0l0,27.58737a9.35957,3.44842 0 0 0 9.35957,3.44842l23.39892,0a9.35957,3.44842 0 0 0 9.35957,-3.44842l0,-27.58737zm9.35957,0l0,27.58737a9.35957,3.44842 0 0 0 9.35957,3.44842l23.39892,0a9.35957,3.44842 0 0 0 9.35957,-3.44842l0,-27.58737l-4.67978,0a4.67978,1.72421 0 0 1 -4.67979,-1.72421l0,-39.65684l-23.39892,0l0,39.65684a4.67978,1.72421 0 0 1 -4.67978,1.72421l-4.67979,0zm-60.8372,0l-4.67979,0a4.67978,1.72421 0 0 1 -4.67978,-1.72421l0,-39.65684l-23.39892,0a9.35957,3.44842 0 0 0 -9.35957,3.44842l0,65.51999a9.35957,3.44842 0 0 0 9.35957,3.44842l23.39892,0a9.35957,3.44842 0 0 0 9.35957,-3.44842l0,-27.58737zm121.67441,-41.38105l0,39.65684a4.67978,1.72421 0 0 1 -4.67978,1.72421l-4.67979,0l0,27.58737a9.35957,3.44842 0 0 0 9.35957,3.44842l23.39892,0a9.35957,3.44842 0 0 0 9.35957,-3.44842l0,-65.51999a9.35957,3.44842 0 0 0 -9.35957,-3.44842l-23.39892,0zm-163.79247,-6.89684l196.55096,0a18.71914,6.89684 0 0 1 18.71914,6.89684l0,72.41684a18.71914,6.89684 0 0 1 -18.71914,6.89684l-196.55096,0a18.71914,6.89684 0 0 1 -18.71914,-6.89684l0,-72.41684a18.71914,6.89684 0 0 1 18.71914,-6.89684z"/>
   </g>
  </g>
 </g>

</svg>