<?xml version="1.0" standalone="no"?><!DOCTYPE svg PUBLIC "-//W3C//DTD SVG 1.1//EN" "http://www.w3.org/Graphics/SVG/1.1/DTD/svg11.dtd"><svg t="1684518223738" class="icon" viewBox="0 0 1024 1024" version="1.1" xmlns="http://www.w3.org/2000/svg" p-id="10907" xmlns:xlink="http://www.w3.org/1999/xlink" width="200" height="200"><path d="M950.857143 128V768c0 80.566857-120.576 109.714286-182.857143 109.714286s-182.857143-29.147429-182.857143-109.714286 120.576-109.714286 182.857143-109.714286c37.705143 0 75.446857 6.838857 109.714286 22.272v-306.870857l-438.857143 135.424v405.138286c0 80.566857-120.576 109.714286-182.857143 109.714286s-182.857143-29.147429-182.857143-109.714286 120.576-109.714286 182.857143-109.714286c37.705143 0 75.446857 6.838857 109.714286 22.272V274.249143c0-23.990857 16.018286-45.129143 38.838857-52.553143l475.428571-146.285714c5.156571-1.718857 10.276571-2.304 16.018286-2.304a54.857143 54.857143 0 0 1 54.857143 54.857143z" fill="" p-id="10908"></path></svg>