<?xml version="1.0" encoding="UTF-8" standalone="no"?>
<!-- Generator: Adobe Illustrator 19.1.0, SVG Export Plug-In . SVG Version: 6.00 Build 0)  -->

<svg
   version="1.1"
   id="Capa_1"
   x="0px"
   y="0px"
   viewBox="0 0 200 200"
   xml:space="preserve"
   sodipodi:docname="inc_globe_gen.svg"
   width="200"
   height="200"
   inkscape:version="1.2.1 (9c6d41e4, 2022-07-14)"
   xmlns:inkscape="http://www.inkscape.org/namespaces/inkscape"
   xmlns:sodipodi="http://sodipodi.sourceforge.net/DTD/sodipodi-0.dtd"
   xmlns="http://www.w3.org/2000/svg"
   xmlns:svg="http://www.w3.org/2000/svg"><defs
   id="defs39" /><sodipodi:namedview
   id="namedview37"
   pagecolor="#000000"
   bordercolor="#666666"
   borderopacity="1.0"
   inkscape:showpageshadow="2"
   inkscape:pageopacity="0"
   inkscape:pagecheckerboard="0"
   inkscape:deskcolor="#d1d1d1"
   showgrid="false"
   inkscape:zoom="1.9773938"
   inkscape:cx="4.8043036"
   inkscape:cy="108.72898"
   inkscape:window-width="1440"
   inkscape:window-height="784"
   inkscape:window-x="0"
   inkscape:window-y="23"
   inkscape:window-maximized="0"
   inkscape:current-layer="g184" />
<g
   id="g4"
   transform="matrix(0.38307735,0,0,0.38307735,49.050776,262.10031)"
   style="stroke:none;stroke-width:0.999798;stroke-dasharray:none;stroke-opacity:1">
	
</g>
<g
   id="g6"
   inkscape:label="g6">
</g>
<g
   id="g8">
</g>
<g
   id="g10">
</g>
<g
   id="g12">
</g>
<g
   id="g14">
</g>
<g
   id="g16">
</g>
<g
   id="g18">
</g>
<g
   id="g20">
</g>
<g
   id="g22">
</g>
<g
   id="g24">
</g>
<g
   id="g26">
</g>
<g
   id="g28">
</g>
<g
   id="g30">
</g>
<g
   id="g32">
</g>
<g
   id="g34"
   inkscape:label="g34">
</g>
<g
   id="g184"
   transform="matrix(0.38307735,0,0,0.38307735,1.6070441,259.07871)"
   style="stroke:none;stroke-width:0.999798;stroke-dasharray:none;stroke-opacity:1">
	<path
   d="m 333.55458,-509.19295 c -15.56309,-15.56308 -36.16684,-24.06922 -58.15678,-24.06922 -21.98995,0 -42.65671,8.56915 -58.21979,24.13223 l -8.12809,8.12809 -8.2541,-8.25411 c -15.56308,-15.56308 -36.29286,-24.19523 -58.2828,-24.19523 -21.92693,0 -42.593699,8.56914 -58.093772,24.06922 -15.563082,15.56308 -24.132229,36.22984 -24.06922,58.21978 0,21.98995 8.632155,42.5937 24.195237,58.15678 L 202.8751,-274.67558 c 1.63821,1.63822 3.84351,2.52034 5.9858,2.52034 2.14228,0 4.34758,-0.81911 5.9858,-2.45733 l 118.58186,-118.1408 c 15.56308,-15.56308 24.13223,-36.22985 24.13223,-58.21979 0.063,-21.98994 -8.44313,-42.65671 -24.00621,-58.21979 z m -12.09762,104.40497 -112.59606,112.155 -112.344034,-112.34403 c -12.349652,-12.34965 -19.154562,-28.73184 -19.154562,-46.18518 0,-17.45333 6.741902,-33.83552 19.091554,-46.12216 12.286642,-12.28665 28.668832,-19.09156 46.059162,-19.09156 17.45334,0 33.89854,6.80491 46.24819,19.15456 l 14.2399,14.23991 c 3.33945,3.33945 8.69517,3.33945 12.03461,0 l 14.11389,-14.11389 c 12.34965,-12.34965 28.79485,-19.15456 46.18518,-19.15456 17.39032,0 33.77252,6.80491 46.12217,19.09155 12.34965,12.34965 19.09155,28.73185 19.09155,46.18518 0.063,17.45333 -6.7419,33.83553 -19.09155,46.18518 z"
   id="path182"
   style="stroke:#ffffff;stroke-width:24.672;stroke-dasharray:none;stroke-opacity:1" /><ellipse
   style="fill:#000000;fill-rule:evenodd;stroke:none;stroke-width:0.999798;stroke-dasharray:none;stroke-opacity:1"
   id="path238"
   cx="110.75185"
   cy="93.810349"
   rx="29.837254"
   ry="30.595829"
   transform="matrix(2.6104389,0,0,2.6104389,-21.112619,-684.19683)" /><circle
   style="fill:#000000;fill-rule:evenodd;stroke:none;stroke-width:2.60991;stroke-dasharray:none;stroke-opacity:1"
   id="path922"
   cx="344.5665"
   cy="-438.65057"
   r="63.366776" /><ellipse
   style="fill:#000000;fill-rule:evenodd;stroke:none;stroke-width:2.60991;stroke-dasharray:none;stroke-opacity:1"
   id="path925"
   cx="305.62231"
   cy="-363.40253"
   rx="44.224731"
   ry="44.8848" /><path
   d="m 333.55458,-509.19295 c -15.56309,-15.56308 -36.16684,-24.06922 -58.15678,-24.06922 -21.98995,0 -42.65671,8.56915 -58.21979,24.13223 l -8.12809,8.12809 -8.2541,-8.25411 c -15.56308,-15.56308 -36.29286,-24.19523 -58.2828,-24.19523 -21.92693,0 -42.593699,8.56914 -58.093772,24.06922 -15.563082,15.56308 -24.132229,36.22984 -24.06922,58.21978 0,21.98995 8.632155,42.5937 24.195237,58.15678 L 202.8751,-274.67558 c 1.63821,1.63822 3.84351,2.52034 5.9858,2.52034 2.14228,0 4.34758,-0.81911 5.9858,-2.45733 l 118.58186,-118.1408 c 15.56308,-15.56308 24.13223,-36.22985 24.13223,-58.21979 0.063,-21.98994 -8.44313,-42.65671 -24.00621,-58.21979 z m -12.09762,104.40497 -112.59606,112.155 -112.344034,-112.34403 c -12.349652,-12.34965 -19.154562,-28.73184 -19.154562,-46.18518 0,-17.45333 6.741902,-33.83552 19.091554,-46.12216 12.286642,-12.28665 28.668832,-19.09156 46.059162,-19.09156 17.45334,0 33.89854,6.80491 46.24819,19.15456 l 14.2399,14.23991 c 3.33945,3.33945 8.69517,3.33945 12.03461,0 l 14.11389,-14.11389 c 12.34965,-12.34965 28.79485,-19.15456 46.18518,-19.15456 17.39032,0 33.77252,6.80491 46.12217,19.09155 12.34965,12.34965 19.09155,28.73185 19.09155,46.18518 0.063,17.45333 -6.7419,33.83553 -19.09155,46.18518 z"
   id="path2"
   style="display:inline;stroke:#ffffff;stroke-width:24.672;stroke-dasharray:none;stroke-opacity:1"
   inkscape:label="path2"
   transform="translate(106.93143)" />
</g></svg>
